# xmcd
#
# Track frame offsets:
#	150
#	22049
#	36166
#	51349
#	59977
#	78529
#	107237
#	122349
#	147957
#	160403
#	189634
#	212241
#	239593
#	259555
#
# Disc length: 3779 seconds
#
# Revision: 1
# Processed by: cddbd v1.5.2PL0 Copyright (c) Steve Scherf et al.
# Submitted via: audiograbber 1.82.02
#
DISCID=d50ec10e
DTITLE=Stradella Chill Out Music Group - Happy Christmas Chill
DYEAR=2007
DGENRE=Chill Out
TTITLE0=Let it snow
TTITLE1=It came upon the Midnight clear
TTITLE2=Bring a Torch
TTITLE3=The Holly and the Ivy
TTITLE4=Angels we have heard on high
TTITLE5=The first Noel
TTITLE6=Away in a Manger
TTITLE7=What Child is this
TTITLE8=We wish you a merry Christmas
TTITLE9=Oh holy Night
TTITLE10=Winter Wonderland
TTITLE11=Oh come oh come Emmanuel
TTITLE12=Here we come a Caroling
TTITLE13=Oh little Town of Bethlehem
EXTD=
EXTT0=
EXTT1=
EXTT2=
EXTT3=
EXTT4=
EXTT5=
EXTT6=
EXTT7=
EXTT8=
EXTT9=
EXTT10=
EXTT11=
EXTT12=
EXTT13=
PLAYORDER=
